HIERARCHY
ROOT Pelvis
{
	OFFSET 0.000000 0.000000 0.000000
	CHANNELS 6 Xposition Yposition Zposition Xrotation Yrotation Zrotation
	JOINT LeftUpLeg_virtual
	{
		OFFSET 0.000000 0.000000 0.000000
		CHANNELS 3 Xrotation Yrotation Zrotation
		JOINT LeftUpLeg
		{
			OFFSET 18.735201 -5.666702 -4.541200
			CHANNELS 3 Xrotation Yrotation Zrotation
			JOINT LeftLeg
			{
				OFFSET -0.021200 -31.938179 0.493100
				CHANNELS 3 Xrotation Yrotation Zrotation
				JOINT LeftFoot
				{
					OFFSET 0.021200 -31.938179 -4.336299
					CHANNELS 3 Xrotation Yrotation Zrotation
					JOINT LeftToeBase
					{
						OFFSET 0.943001 -26.722000 15.023500
						CHANNELS 3 Xrotation Yrotation Zrotation
						End Site
						{
							OFFSET 0 0 0
						}
					}
				}
			}
		}
	}
	JOINT RightUpLeg_virtual
	{
		OFFSET 0.000000 0.000000 0.000000
		CHANNELS 3 Xrotation Yrotation Zrotation
		JOINT RightUpLeg
		{
			OFFSET -18.735201 -5.666702 -4.541200
			CHANNELS 3 Xrotation Yrotation Zrotation
			JOINT RightLeg
			{
				OFFSET 0.018946 -31.938133 0.493100
				CHANNELS 3 Xrotation Yrotation Zrotation
				JOINT RightFoot
				{
					OFFSET -0.018946 -31.938126 -4.336299
					CHANNELS 3 Xrotation Yrotation Zrotation
					JOINT RightToeBase
					{
						OFFSET -0.943001 -26.722004 15.023500
						CHANNELS 3 Xrotation Yrotation Zrotation
						End Site
						{
							OFFSET 0 0 0
						}
					}
				}
			}
		}
	}
	JOINT Hips_virtual
	{
		OFFSET 0.000000 0.000000 0.000000
		CHANNELS 3 Xrotation Yrotation Zrotation
		JOINT Hips
		{
			OFFSET -0.000000 -0.000000 -0.000000
			CHANNELS 3 Xrotation Yrotation Zrotation
			JOINT Spine
			{
				OFFSET 0.000000 10.199997 -0.299500
				CHANNELS 3 Xrotation Yrotation Zrotation
				JOINT Spine1
				{
					OFFSET 0.000000 11.900002 -1.516600
					CHANNELS 3 Xrotation Yrotation Zrotation
					JOINT Spine2
					{
						OFFSET 0.000000 13.600006 -2.842500
						CHANNELS 3 Xrotation Yrotation Zrotation
						JOINT Neck_virtual
						{
							OFFSET 0.000000 0.000000 0.000000
							CHANNELS 3 Xrotation Yrotation Zrotation
							JOINT Neck
							{
								OFFSET 0.000000 9.624100 -2.890100
								CHANNELS 3 Xrotation Yrotation Zrotation
								JOINT Head
								{
									OFFSET 0.000000 14.068802 -1.351900
									CHANNELS 3 Xrotation Yrotation Zrotation
									End Site
									{
										OFFSET 0 0 0
									}
								}
							}
						}
						JOINT LeftShoulder_virtual
						{
							OFFSET 0.000000 0.000000 0.000000
							CHANNELS 3 Xrotation Yrotation Zrotation
							JOINT LeftShoulder
							{
								OFFSET 15.263000 10.923401 -0.547700
								CHANNELS 3 Xrotation Yrotation Zrotation
								JOINT LeftArm
								{
									OFFSET 25.438599 -2.830597 -13.032500
									CHANNELS 3 Xrotation Yrotation Zrotation
									JOINT LeftForeArm
									{
										OFFSET 29.960503 0.000000 0.000000
										CHANNELS 3 Xrotation Yrotation Zrotation
										JOINT LeftHand
										{
											OFFSET 27.849251 0.000000 0.000000
											CHANNELS 3 Xrotation Yrotation Zrotation
											End Site
											{
												OFFSET 0 0 0
											}
										}
									}
								}
							}
						}
						JOINT RightShoulder_virtual
						{
							OFFSET 0.000000 0.000000 0.000000
							CHANNELS 3 Xrotation Yrotation Zrotation
							JOINT RightShoulder
							{
								OFFSET -15.263000 10.923401 -0.547700
								CHANNELS 3 Xrotation Yrotation Zrotation
								JOINT RightArm
								{
									OFFSET -25.438599 -2.830597 -13.032500
									CHANNELS 3 Xrotation Yrotation Zrotation
									JOINT RightForeArm
									{
										OFFSET -29.960503 0.000000 0.000000
										CHANNELS 3 Xrotation Yrotation Zrotation
										JOINT RightHand
										{
											OFFSET -27.849251 0.000000 0.000000
											CHANNELS 3 Xrotation Yrotation Zrotation
											End Site
											{
												OFFSET 0 0 0
											}
										}
									}
								}
							}
						}
					}
				}
			}
		}
	}
}
MOTION
Frames: 10
Frame Time: 0.03333333
3.945197 87.081802 121.327721 0.000000 0.000000 0.000000 4.449799 -6.056521 -3.530399 -54.700939 8.068529 10.603398 37.533150 -6.782332 3.224056 3.910327 -13.742463 -3.037913 0.000000 0.000000 0.000000 4.449799 -6.056521 -3.530399 -23.176577 2.861254 7.503134 48.511825 3.466142 -2.446534 -28.799301 -1.130334 0.116099 0.000000 0.000000 0.000000 4.449799 -6.056521 -3.530399 0.000000 0.000000 0.000000 16.202804 3.401686 1.915929 20.044449 7.628497 3.273776 0.000000 0.000000 0.000000 19.863227 7.768544 3.728081 -4.568202 3.046582 -5.881588 0.000000 0.000000 0.000000 19.863227 7.768544 3.728081 -3.629733 -15.408610 -10.382904 -11.971366 6.480803 -65.205084 -0.000008 -64.653922 -0.000006 0.000000 0.000000 0.000000 19.863227 7.768544 3.728081 -0.264775 19.358395 4.692119 -45.642749 8.432336 36.901470 -179.997573 78.025363 179.997614 0.000000 0.000000 0.000000 
3.686564 87.397034 120.407173 0.000000 0.000000 0.000000 3.558168 -6.269552 -3.913768 -53.975324 8.010217 11.495487 38.845396 -6.478911 3.661898 0.586854 -11.059913 -3.663455 0.000000 0.000000 0.000000 3.558168 -6.269552 -3.913768 -22.443013 2.649381 7.727860 47.267327 3.739260 -2.151251 -27.843469 -0.897491 -0.023727 0.000000 0.000000 0.000000 3.558168 -6.269552 -3.913768 0.000000 0.000000 0.000000 16.018773 3.378713 1.988717 19.617230 7.612218 3.331497 0.000000 0.000000 0.000000 19.436459 7.747064 3.778477 -4.485461 2.959544 -5.828625 0.000000 0.000000 0.000000 19.436459 7.747064 3.778477 -3.381580 -14.879791 -10.335932 -13.224294 6.607397 -66.021858 0.000006 -61.657743 0.000003 0.000000 0.000000 0.000000 19.436459 7.747064 3.778477 -0.354248 18.524223 5.452756 -46.329638 9.134347 35.856096 -179.999349 77.992209 179.999349 0.000000 0.000000 0.000000 
3.449138 87.682800 119.518188 0.000000 0.000000 0.000000 2.655381 -6.365304 -4.213215 -53.187158 8.270300 12.263977 40.425923 -6.403540 4.120613 -3.238467 -8.172692 -3.931477 0.000000 0.000000 0.000000 2.655381 -6.365304 -4.213215 -21.741720 2.419008 7.980837 46.222332 3.999388 -1.982990 -26.954752 -0.787158 -0.219115 0.000000 0.000000 0.000000 2.655381 -6.365304 -4.213215 0.000000 0.000000 0.000000 15.855015 3.339294 2.053964 19.228933 7.527441 3.365998 0.000000 0.000000 0.000000 19.049736 7.657293 3.800926 -4.443428 2.863738 -5.718573 0.000000 0.000000 0.000000 19.049736 7.657293 3.800926 -3.121604 -14.392986 -10.230464 -14.562995 6.814951 -66.747286 -0.000016 -58.543839 -0.000024 0.000000 0.000000 0.000000 19.049736 7.657293 3.800926 -0.392653 17.683329 6.225812 -47.721859 9.660091 34.897813 -179.998735 78.245500 179.998735 0.000000 0.000000 0.000000 
3.249034 87.943420 118.670029 0.000000 0.000000 0.000000 1.743212 -6.322271 -4.441023 -52.038156 7.814314 12.879972 41.982980 -4.520278 3.918040 -7.144798 -6.296052 -3.940095 0.000000 0.000000 0.000000 1.743212 -6.322271 -4.441023 -21.060878 2.092805 8.280270 45.366697 4.194278 -1.949953 -26.039215 -0.749348 -0.634289 0.000000 0.000000 0.000000 1.743212 -6.322271 -4.441023 0.000000 0.000000 0.000000 15.695322 3.297634 2.134890 18.892727 7.360077 3.379202 0.000000 0.000000 0.000000 18.719009 7.487796 3.782731 -4.432796 2.771693 -5.538082 0.000000 0.000000 0.000000 18.719009 7.487796 3.782731 -2.920863 -13.934229 -10.054505 -15.900433 7.130574 -67.405020 -0.000016 -55.377330 -0.000024 0.000000 0.000000 0.000000 18.719009 7.487796 3.782731 -0.415594 16.816233 7.010210 -50.064853 9.752497 34.132682 -179.999486 77.984873 179.999500 0.000000 0.000000 0.000000 
3.085458 88.159714 117.868698 0.000000 0.000000 0.000000 0.827956 -6.135603 -4.615166 -50.820026 6.906963 13.439954 43.463325 -0.832219 3.099086 -9.792151 -6.052237 -4.415433 0.000000 0.000000 0.000000 0.827956 -6.135603 -4.615166 -20.654074 1.820946 8.575926 45.019143 4.416465 -1.990909 -25.137003 -0.907521 -0.890396 0.000000 0.000000 0.000000 0.827956 -6.135603 -4.615166 0.000000 0.000001 0.000000 15.550157 3.237086 2.239591 18.588268 7.129564 3.367388 0.000000 0.000000 0.000000 18.418553 7.257470 3.742486 -4.465165 2.656801 -5.281599 0.000000 0.000000 0.000000 18.418553 7.257470 3.742486 -2.696760 -13.540294 -9.827419 -17.269363 7.585424 -67.978373 0.000006 -52.241658 0.000010 0.000000 0.000000 0.000000 18.418553 7.257470 3.742486 -0.400121 15.885990 7.777823 -52.330058 10.140607 33.435562 -179.998461 78.586340 179.998461 0.000000 0.000000 0.000000 
2.967640 88.322472 117.116295 0.000000 0.000000 0.000000 -0.079745 -5.815059 -4.750536 -50.042259 5.709393 14.603848 44.672453 1.675717 2.295483 -9.055827 -5.358302 -7.441458 0.000000 0.000000 0.000000 -0.079745 -5.815059 -4.750536 -20.216933 1.608845 8.867203 44.812540 4.442949 -2.064710 -24.430477 -1.132806 -1.096318 0.000000 0.000000 0.000000 -0.079745 -5.815059 -4.750536 0.000000 0.000000 0.000000 15.414721 3.160587 2.374883 18.307154 6.842975 3.335158 0.000000 0.000000 0.000000 18.139604 6.974634 3.683821 -4.517936 2.538792 -4.963819 0.000000 0.000000 0.000000 18.139604 6.974634 3.683821 -2.496460 -13.195359 -9.565473 -18.578982 8.187676 -68.480289 -0.000016 -49.237338 -0.000028 0.000000 0.000000 0.000000 18.139604 6.974634 3.683821 -0.357496 14.871764 8.511743 -54.828637 10.545195 32.887784 179.995087 79.131081 -179.995142 0.000000 0.000000 0.000000 
2.869024 88.476837 116.374451 0.000000 0.000000 0.000000 -0.965430 -5.382303 -4.835368 -48.840617 5.052883 15.502159 45.467630 3.918110 1.626763 -7.109432 -5.120648 -9.338352 0.000000 0.000000 0.000000 -0.965430 -5.382303 -4.835368 -19.763376 1.396854 9.143172 44.610086 4.440283 -2.158591 -23.765358 -1.418259 -1.351163 0.000000 0.000000 0.000000 -0.965430 -5.382303 -4.835368 0.000000 0.000000 0.000000 15.297177 3.070700 2.523506 18.024885 6.503978 3.282288 0.000000 0.000000 0.000000 17.858216 6.643051 3.605583 -4.606934 2.380018 -4.574564 0.000000 0.000000 0.000000 17.858216 6.643051 3.605583 -2.260335 -12.898583 -9.269982 -19.824137 8.930770 -68.908440 0.000015 -46.474028 0.000020 0.000000 0.000000 0.000000 17.858216 6.643051 3.605583 -0.326880 13.761753 9.217769 -58.192426 10.658754 32.619819 179.998980 79.385458 -179.998994 0.000000 0.000000 0.000000 
2.802244 88.595596 115.653770 0.000000 0.000000 0.000000 -1.811801 -4.871104 -4.896434 -47.369093 4.278345 16.547245 46.658108 4.859586 1.102160 -5.858292 -4.740903 -12.272508 0.000000 0.000000 0.000000 -1.811801 -4.871104 -4.896434 -19.187519 1.105579 9.483834 44.449170 4.370841 -2.335025 -23.513850 -1.698901 -1.882785 0.000000 0.000000 0.000000 -1.811801 -4.871104 -4.896434 0.000000 0.000000 0.000000 15.188654 2.969818 2.665169 17.724867 6.151641 3.244094 0.000000 0.000000 0.000000 17.563874 6.278937 3.554084 -4.657232 2.230887 -4.148921 0.000000 0.000000 0.000000 17.563874 6.278937 3.554084 -2.043084 -12.649538 -9.012654 -20.905679 9.779919 -69.261813 0.000005 -44.059249 0.000030 0.000000 0.000000 0.000000 17.563874 6.278937 3.554084 -0.267047 12.535941 9.806651 -61.139045 11.110015 32.393866 179.994992 79.252099 -179.995046 0.000000 0.000000 0.000000 
2.738989 88.717209 114.931580 0.000000 0.000000 0.000000 -2.599793 -4.319587 -4.926507 -45.611023 4.140502 17.622178 47.625471 4.228737 0.907660 -5.025015 -4.423401 -14.876668 0.000000 0.000000 0.000000 -2.599793 -4.319587 -4.926507 -18.638218 0.812553 9.795763 44.261760 4.299218 -2.490345 -23.317211 -2.006226 -2.424176 0.000000 0.000000 0.000000 -2.599793 -4.319587 -4.926507 0.000000 0.000000 0.000000 15.081264 2.837695 2.799243 17.406973 5.782072 3.195771 0.000000 0.000000 0.000000 17.248050 5.901325 3.501947 -4.712579 2.051148 -3.690839 0.000000 0.000000 0.000000 17.248050 5.901325 3.501947 -1.790825 -12.429361 -8.768183 -21.819707 10.680660 -69.551331 -0.000003 -42.090330 -0.000033 0.000000 0.000000 0.000000 17.248050 5.901325 3.501947 -0.181142 11.242564 10.300509 -64.383658 10.952392 32.276103 -179.991016 78.664054 179.991085 0.000000 0.000000 0.000000 
2.721469 88.782028 114.237831 0.000000 0.000000 0.000000 -3.310359 -3.768954 -4.973467 -44.757331 3.448528 18.136485 50.672890 3.563042 0.758977 -4.463717 -4.351632 -15.963069 0.000000 0.000000 0.000000 -3.310359 -3.768954 -4.973467 -18.211009 0.442260 10.039337 44.227271 4.302328 -2.645480 -23.200353 -2.293253 -2.885594 0.000000 0.000000 0.000000 -3.310359 -3.768954 -4.973467 0.000000 0.000000 0.000000 14.948916 2.712456 2.944411 17.074474 5.400404 3.165254 0.000000 0.000000 0.000000 16.922705 5.503439 3.459011 -4.744218 1.885233 -3.245211 0.000000 0.000000 0.000000 16.922705 5.503439 3.459011 -1.565847 -12.217986 -8.558232 -22.475899 11.559234 -69.794561 -0.000004 -40.635712 -0.000005 0.000000 0.000000 0.000000 16.922705 5.503439 3.459011 -0.083304 9.912749 10.665540 -68.418435 10.326503 32.300832 -179.997437 77.687282 179.997478 0.000000 0.000000 0.000000 
